<svg width="49" height="49" viewBox="0 0 49 49" fill="none" xmlns="http://www.w3.org/2000/svg">
<g filter="url(#filter0_b_2019_8)">
<rect width="49" height="49" rx="15" fill="url(#paint0_linear_2019_8)" fill-opacity="0.8"/>
<rect x="0.5" y="0.5" width="48" height="48" rx="14.5" stroke="url(#paint1_linear_2019_8)"/>
</g>
<path d="M31.375 22.75C28.2656 22.75 25.75 25.2656 25.75 28.375C25.75 31.4844 28.2656 34 31.375 34C34.4844 34 37 31.4844 37 28.375C37 25.2656 34.4844 22.75 31.375 22.75ZM33.875 28.6211C33.875 28.8281 33.7031 29 33.4961 29H31.1289C30.9219 29 30.75 28.8281 30.75 28.6211V25.6289C30.75 25.4219 30.9219 25.25 31.1289 25.25H31.6211C31.8281 25.25 32 25.4219 32 25.6289V27.75H33.4961C33.7031 27.75 33.875 27.9219 33.875 28.1289V28.6211ZM24.5 28.375C24.5 27.2891 24.7617 26.2617 25.2109 25.3477C24.8984 25.2891 24.5781 25.25 24.25 25.25H23.5977C22.7305 25.6484 21.7656 25.875 20.75 25.875C19.7344 25.875 18.7734 25.6484 17.9023 25.25H17.25C14.3516 25.25 12 27.6016 12 30.5V32.125C12 33.1602 12.8398 34 13.875 34H27.4336C25.6641 32.7539 24.5 30.6992 24.5 28.375ZM20.75 24C23.5117 24 25.75 21.7617 25.75 19C25.75 16.2383 23.5117 14 20.75 14C17.9883 14 15.75 16.2383 15.75 19C15.75 21.7617 17.9883 24 20.75 24Z" fill="#976976"/>
<defs>
<filter id="filter0_b_2019_8" x="-100" y="-100" width="249" height="249" filterUnits="userSpaceOnUse" color-interpolation-filters="sRGB">
<feFlood flood-opacity="0" result="BackgroundImageFix"/>
<feGaussianBlur in="BackgroundImageFix" stdDeviation="50"/>
<feComposite in2="SourceAlpha" operator="in" result="effect1_backgroundBlur_2019_8"/>
<feBlend mode="normal" in="SourceGraphic" in2="effect1_backgroundBlur_2019_8" result="shape"/>
</filter>
<linearGradient id="paint0_linear_2019_8" x1="0" y1="0" x2="46.6895" y2="51.1106" gradientUnits="userSpaceOnUse">
<stop stop-color="#540119"/>
<stop offset="1" stop-color="#881B3B" stop-opacity="0.33"/>
</linearGradient>
<linearGradient id="paint1_linear_2019_8" x1="52.8626" y1="43.9234" x2="0.943522" y2="0.59884" gradientUnits="userSpaceOnUse">
<stop stop-color="#AC6E84"/>
<stop offset="1" stop-color="#954E63"/>
</linearGradient>
</defs>
</svg>
